
<svg xmlns:rdf="http://www.w3.org/1999/02/22-rdf-syntax-ns#" xmlns="http://www.w3.org/2000/svg" xmlns:cc="http://creativecommons.org/ns#" xmlns:dc="http://purl.org/dc/elements/1.1/" xmlns:svg="http://www.w3.org/2000/svg" id="svg2" viewBox="0 0 113.61 73.013" version="1.0">
  <g id="layer1" transform="translate(-714.62 -350.14)">
    <path id="path5305" d="m788.72 350.14l-2.01 7.1 3.86 1.08 0.15 1.72-3.53 0.45 0.13 1.4-2.46 0.15c-1.91 0.61-1.28 3.9 1.38 3.7l2.95-0.32c-0.49 1.47-0.9 3.02-0.63 5.26 0.55 2.92 1.26 6.04 3.09 10.5 0.45 1.82 0.15 3.38-0.16 4.94l-3.38 10.19c-1.05 3.21-6.51 3.01-15.6 0l0.32-2.64c1.72-0.41 2.25-1.49 2.16-2.93-0.97-3.2-2.28-6.06-4.03-8.48-1.81-2.42-3.77-3.18-6.63-2.79-5.7 0.66-11.28 0.94-16.21-1.22-1.52-0.61-2.34-0.06-3.09 0.61l-2-0.16-0.61-2.46c-8.64-1.14-12.95-0.68-12.51 1.54-4.21-0.57-9.05-1.52-10.8-0.61-1.43 0.44-1.5 1.34-1.4 2.3l4.46 2.48-1.84 2 4.32 3.09-4.62 3.86 1.22 1.85-6.63 10.34 1.24 1.24 5.55-6.17 0.4 0.36c-1.43 2.43-2.25 5.26-2.25 8.29 0 9.03 7.33 16.34 16.37 16.34 5.95 0 11.18-3.17 14.04-7.93l14.67-0.09 1.38-1.53 19.29 0.45c4.75-0.51 9.77-0.43 8.98-13.28 2.9-4.57 6.11-7.02 9.51-8.18-4.95 2.81-8.3 8.13-8.3 14.22 0 9.03 7.34 16.34 16.37 16.34s16.36-7.31 16.36-16.34c0-4.7-1.98-8.94-5.16-11.92 0.41-0.98 1.06-1.79-0.7-4.29-2.69-2.34-6.23-4.6-16.84-6.17-1.75-6.93-4.45-13.16-10.32-17l0.14-1.69c3.56 0.34 5.05-1.24 5.25-4.01-0.06-1.95 0.7-4-1.54-5.71-2.67-1.02-5.35-1.05-8.02-0.78-0.04-5.53-1.29-4.76-2.32-5.1zm-52.79 44.32c0.71 0 1.41 0.06 2.09 0.18l-2.64 5.63c-0.29 0.03-0.57 0.06-0.85 0.12l-4.62-2.84-0.68-1.11c1.93-1.25 4.23-1.98 6.7-1.98zm75.94 0c6.82 0 12.35 5.53 12.35 12.35s-5.53 12.33-12.35 12.33-12.35-5.51-12.35-12.33 5.53-12.35 12.35-12.35zm0 5.77c-3.62 0-6.56 2.96-6.56 6.58s2.94 6.56 6.56 6.56 6.56-2.94 6.56-6.56-2.94-6.58-6.56-6.58zm-86.83 0.77l4.98 2.97c-0.42 0.86-0.65 1.82-0.65 2.84 0 3.62 2.93 6.56 6.56 6.56 0.83 0 1.63-0.16 2.36-0.45l1.96 2.37 4.65-0.03c-2.26 2.39-5.44 3.88-8.97 3.88-6.82 0-12.36-5.51-12.36-12.33 0-2.1 0.54-4.08 1.47-5.81z" fill="#1e1b4b"/>
  </g>
  <metadata>
    <rdf:RDF>
      <cc:Work>
        <dc:format>image/svg+xml</dc:format>
        <dc:type rdf:resource="http://purl.org/dc/dcmitype/StillImage"/>
        <cc:license rdf:resource="http://creativecommons.org/licenses/publicdomain/"/>
        <dc:publisher>
          <cc:Agent rdf:about="http://openclipart.org/">
            <dc:title>Openclipart</dc:title>
          </cc:Agent>
        </dc:publisher>
        <dc:title>Scooter</dc:title>
        <dc:date>2008-02-13T07:40:56</dc:date>
        <dc:description>Small scooter</dc:description>
        <dc:source>http://openclipart.org/detail/13825/scooter-by-zager</dc:source>
        <dc:creator>
          <cc:Agent>
            <dc:title>zager</dc:title>
          </cc:Agent>
        </dc:creator>
        <dc:subject>
          <rdf:Bag>
            <rdf:li>clip art</rdf:li>
            <rdf:li>clipart</rdf:li>
            <rdf:li>image</rdf:li>
            <rdf:li>media</rdf:li>
            <rdf:li>public domain</rdf:li>
            <rdf:li>scooter</rdf:li>
            <rdf:li>silhouette</rdf:li>
            <rdf:li>svg</rdf:li>
            <rdf:li>transportation</rdf:li>
          </rdf:Bag>
        </dc:subject>
      </cc:Work>
      <cc:License rdf:about="http://creativecommons.org/licenses/publicdomain/">
        <cc:permits rdf:resource="http://creativecommons.org/ns#Reproduction"/>
        <cc:permits rdf:resource="http://creativecommons.org/ns#Distribution"/>
        <cc:permits rdf:resource="http://creativecommons.org/ns#DerivativeWorks"/>
      </cc:License>
    </rdf:RDF>
  </metadata>
</svg>
