<svg
class="icon icon-map-marker"
xmlns="http://www.w3.org/2000/svg"
width="18"
height="27"
viewBox="0 0 18 27"
style="enable-background: new 0 0 18 27"
>
<title>Map Marker</title>
<path
    d="M13.5,9c0-1.2-0.4-2.3-1.3-3.2S10.2,4.5,9,4.5S6.7,4.9,5.8,5.8S4.5,7.8,4.5,9s0.4,2.3,1.3,3.2s1.9,1.3,3.2,1.3 s2.3-0.4,3.2-1.3S13.5,10.2,13.5,9z M18,9c0,1.3-0.2,2.3-0.6,3.1L11,25.8c-0.2,0.4-0.5,0.7-0.8,0.9S9.4,27,9,27s-0.8-0.1-1.2-0.3 c-0.4-0.2-0.6-0.5-0.8-0.9L0.6,12.1C0.2,11.3,0,10.3,0,9c0-2.5,0.9-4.6,2.6-6.4S6.5,0,9,0s4.6,0.9,6.4,2.6S18,6.5,18,9z"
/>
</svg>