<?xml version="1.0" encoding="iso-8859-1"?>
<!-- Uploaded to: SVG Repo, www.svgrepo.com, Generator: SVG Repo Mixer Tools -->
<svg version="1.1" id="Layer_1" xmlns="http://www.w3.org/2000/svg" xmlns:xlink="http://www.w3.org/1999/xlink" 
	 viewBox="0 0 512 512" xml:space="preserve">
<circle style="fill:#272F37;" cx="444.77" cy="357.349" r="67.23"/>
<path style="opacity:0.2;enable-background:new    ;" d="M451.356,417.994c-37.132,0-67.233-30.101-67.233-67.233
	c0-16.889,6.242-32.31,16.524-44.118c-14.154,12.326-23.114,30.465-23.114,50.708c0,37.131,30.101,67.233,67.232,67.233
	c20.244,0,38.382-8.959,50.709-23.114C483.666,411.753,468.244,417.994,451.356,417.994z"/>
<circle style="fill:#B7B9BC;" cx="444.77" cy="357.349" r="38.31"/>
<path style="opacity:0.25;fill:#FFFFFF;enable-background:new    ;" d="M460.44,322.394c-5.174,3.534-8.574,9.475-8.574,16.214
	c0,10.838,8.786,19.623,19.623,19.623c4.288,0,8.244-1.392,11.472-3.726C481.906,340.161,472.96,328.017,460.44,322.394z"/>
<path style="opacity:0.2;enable-background:new    ;" d="M444.767,290.118c-37.131,0-67.232,30.101-67.232,67.233
	c0,5.079,0.581,10.02,1.65,14.777h20.485c5.415,0,10.43-2.846,13.207-7.493c7.871-13.172,22.086-21.236,37.429-21.236h5.507
	c6.278,0,11.985-3.64,14.634-9.331l13.866-29.797c0.156-0.335,0.267-0.678,0.363-1.023C473.511,295,459.711,290.118,444.767,290.118
	z"/>
<path style="fill:#00A155;" d="M491.621,289.492c1.44-3.094,0.272-6.771-2.679-8.484c-12.99-7.532-28.079-11.845-44.175-11.845
	c-46.329,0-84.315,35.727-87.909,81.133c-0.302,3.808,2.747,7.054,6.567,7.054h43.554c5.413,0,10.43-2.846,13.207-7.493l0,0
	c7.871-13.172,22.085-21.237,37.429-21.237h5.507c6.278,0,11.985-3.64,14.634-9.331L491.621,289.492z"/>
<path style="opacity:0.15;fill:#FFFFFF;enable-background:new    ;" d="M488.942,281.009c-12.99-7.532-28.079-11.845-44.175-11.845
	c-3.71,0-7.359,0.253-10.949,0.699c2.884,23.762,22.305,42.411,46.417,44.1l11.386-24.468
	C493.061,286.398,491.894,282.721,488.942,281.009z"/>
<circle style="fill:#272F37;" cx="94.495" cy="357.349" r="67.23"/>
<path style="opacity:0.2;enable-background:new    ;" d="M101.079,417.994c-37.132,0-67.233-30.101-67.233-67.232
	c0-16.889,6.242-32.31,16.525-44.119c-14.154,12.326-23.114,30.465-23.114,50.708c0,37.131,30.101,67.233,67.233,67.233
	c20.244,0,38.382-8.959,50.708-23.114C133.389,411.753,117.968,417.994,101.079,417.994z"/>
<circle style="fill:#B7B9BC;" cx="94.495" cy="357.349" r="38.31"/>
<path style="fill:#6A7379;" d="M101.212,374.287l-43.867,3.629c-8.454,0.7-15.701-5.973-15.701-14.456v-10.739
	c0-8.482,7.247-15.155,15.701-14.456l43.867,3.629c6.072,0.502,10.744,5.577,10.744,11.669v9.055
	C111.956,368.711,107.284,373.786,101.212,374.287z"/>
<path style="opacity:0.2;enable-background:new    ;" d="M94.49,290.118c-37.131,0-67.233,30.101-67.233,67.233
	c0,4.417,0.439,8.729,1.251,12.907h131.963c0.813-4.179,1.251-8.491,1.251-12.907C161.723,320.219,131.621,290.118,94.49,290.118z"
	/>
<path style="fill:#00A155;" d="M380.724,87.416h-39.485c-17.009,0-30.797,13.788-30.797,30.797l0,0
	c0,17.009,13.788,30.797,30.797,30.797h39.485c2.219,0,4.017-1.799,4.017-4.017v-53.56
	C384.741,89.215,382.943,87.416,380.724,87.416z"/>
<rect x="348.608" y="87.421" style="fill:#006539;" width="16.451" height="61.593"/>
<path style="opacity:0.2;fill:#FFFFFF;enable-background:new    ;" d="M380.724,87.416h-39.485c-0.922,0-1.834,0.048-2.736,0.127
	c7.735,17.875,25.522,30.384,46.238,30.384V91.434C384.741,89.215,382.943,87.416,380.724,87.416z"/>
<path style="fill:#006539;" d="M343.234,149.012h-12.868c-4.58,0-7.717,4.617-6.03,8.875l31.822,80.315
	c6.579,16.605,4.238,35.418-6.21,49.905l0,0c-15.634,21.678-40.733,34.522-67.46,34.522h-21.494
	c-13.714,0-26.634-6.429-34.906-17.368l-55.508-73.413H30.958L17.18,313.265c-3.902,23.057,13.867,44.087,37.252,44.087h246.056
	c67.858,0,113.228-69.873,85.619-131.861l-30.477-68.429C353.449,152.165,348.593,149.012,343.234,149.012z"/>
<path style="opacity:0.15;fill:#FFFFFF;enable-background:new    ;" d="M386.107,225.49l-18.344-41.187
	c-3.534,6.198-5.563,13.364-5.563,21.009c0,19.272,12.835,35.538,30.42,40.74C391.281,239.17,389.132,232.283,386.107,225.49z"/>
<polygon style="opacity:0.2;enable-background:new    ;" points="170.583,231.848 30.958,231.848 29.09,242.896 178.937,242.896 "/>
<path style="fill:#272F37;" d="M329.389,135.202H274.53c-7.627,0-13.809,6.182-13.809,13.809l0,0
	c0,7.627,6.182,13.809,13.809,13.809h54.859c7.627,0,13.809-6.182,13.809-13.809l0,0
	C343.198,141.386,337.016,135.202,329.389,135.202z"/>
<path style="opacity:0.2;enable-background:new    ;" d="M335.898,156.51h-54.859c-7.627,0-13.809-6.182-13.809-13.809
	c0-2.232,0.542-4.333,1.483-6.2c-4.716,2.197-7.992,6.965-7.992,12.512c0,7.627,6.182,13.809,13.809,13.809h54.859
	c5.395,0,10.054-3.1,12.327-7.61C339.946,156.037,337.98,156.51,335.898,156.51z"/>
<path style="fill:#C39774;" d="M180.694,202.139h-41.168c-8.688,0-17.302-1.61-25.404-4.749l0,0
	c-9.729-3.769-20.072-5.703-30.506-5.703H23.637c-7.369,0-13.343,5.974-13.343,13.343v13.473c0,7.369,5.974,13.343,13.343,13.343
	h157.057c5.991,0,10.849-4.857,10.849-10.849v-8.012C191.541,206.996,186.684,202.139,180.694,202.139z"/>
<path style="opacity:0.1;enable-background:new    ;" d="M114.122,197.39c-9.729-3.769-20.072-5.703-30.506-5.703H23.637
	c-7.369,0-13.343,5.974-13.343,13.343v13.473c0,7.369,5.974,13.343,13.343,13.343h88.29l27.598-29.708
	C130.837,202.139,122.223,200.528,114.122,197.39z"/>
<path style="fill:#00A155;" d="M76.311,272.904h35.33c27.834,0,53.16,16.088,64.99,41.282l13.556,28.87
	c3.124,6.652-1.731,14.294-9.079,14.294H17.701c-11.02,0-19.361-9.965-17.419-20.813l0,0
	C6.87,299.714,38.902,272.904,76.311,272.904z"/>
<path style="opacity:0.15;enable-background:new    ;" d="M118.785,315.401h-48.59c-4.543,0-8.226-3.683-8.226-8.226
	s3.683-8.226,8.226-8.226h48.589c4.543,0,8.226,3.683,8.226,8.226C127.011,311.718,123.328,315.401,118.785,315.401z"/>
<path style="opacity:0.15;enable-background:new    ;" d="M118.785,336.771h-48.59c-4.543,0-8.226-3.683-8.226-8.226
	s3.683-8.226,8.226-8.226h48.589c4.543,0,8.226,3.683,8.226,8.226C127.011,333.088,123.328,336.771,118.785,336.771z"/>
<path style="opacity:0.15;fill:#FFFFFF;enable-background:new    ;" d="M176.631,314.186
	c-11.707-24.932-36.631-40.936-64.122-41.267c-0.381,2.427-0.582,4.912-0.582,7.447c0,26.327,21.342,47.669,47.669,47.669
	c7.619,0,14.815-1.796,21.202-4.975L176.631,314.186z"/>
</svg>